<svg xmlns="http://www.w3.org/2000/svg" viewBox="0 0 32 32">
  <rect width="32" height="32" rx="6" fill="#1a1a1a"/>
  <path d="M8 10c0-1.1.9-2 2-2h1v-2c0-1.1.9-2 2-2h1c1.1 0 2 .9 2 2v2h1c1.1 0 2 .9 2 2v8c0 1.1-.9 2-2 2h-1v2c0 1.1-.9 2-2 2h-1c-1.1 0-2-.9-2-2v-2h-1c-1.1 0-2-.9-2-2v-8z" fill="none" stroke="#10b981" stroke-width="2.5" stroke-linecap="round" stroke-linejoin="round"/>
  <circle cx="10" cy="15" r="1.5" fill="#10b981"/>
  <circle cx="16" cy="15" r="1.5" fill="#10b981"/>
  <circle cx="22" cy="15" r="1.5" fill="#10b981"/>
</svg>